<?xml version="1.0" encoding="UTF-8" standalone="no"?>
<!DOCTYPE svg  PUBLIC '-//W3C//DTD SVG 1.1//EN'  'http://www.w3.org/Graphics/SVG/1.1/DTD/svg11.dtd'>
<!-- Creator: CorelDRAW -->
<svg style="shape-rendering:geometricPrecision;text-rendering:geometricPrecision;image-rendering:optimizeQuality" xmlns="http://www.w3.org/2000/svg" fill-rule="evenodd" xml:space="preserve" height="29.692mm" width="49.427mm" clip-rule="evenodd" xmlns:xlink="http://www.w3.org/1999/xlink" viewBox="0 0 27.8984 16.7591">
 <defs>
  <style type="text/css">
   <![CDATA[
    .fil2 {fill:#DA251D}
    .fil0 {fill:#1E1E1E;fill-rule:nonzero}
    .fil3 {fill:#464646;fill-rule:nonzero}
    .fil1 {fill:#DA251D;fill-rule:nonzero}
   ]]>
  </style>
 </defs>
 <g id="Слой_x0020_1">
  <g id="_130833920">
   <path id="_130833464" d="m27.898 13.211c0 0.092738-0.039793 0.15347-0.11927 0.18107-0.065193 0.02207-0.23526 0.032004-0.51138 0.032004-0.26608 0-0.4594-0.0099342-0.58307-0.032004-0.057404-0.011007-0.096068-0.02207-0.11486-0.034205-0.017667-0.012192-0.040866-0.041994-0.069596-0.091722-0.1568-0.28933-0.31355-0.57867-0.4682-0.86687-0.25733-0.46606-0.4108-0.72339-0.4594-0.77092-0.23306 0.083989-0.35007 0.14472-0.35007 0.18119 0 0.16233 0.0065475 0.4064 0.019868 0.73332 0.012136 0.32681 0.018683 0.572 0.018683 0.73547 0 0.067338-0.028617 0.10487-0.08715 0.11374-0.11159 0.017667-0.31479 0.025456-0.60858 0.025456-0.2794 0-0.46487-0.0077893-0.55547-0.025456-0.062935-0.013208-0.093867-0.046397-0.093867-0.10047 0-0.23306 0.011063-0.58425 0.033133-1.0547 0.023255-0.47052 0.034262-0.82279 0.034262-1.058 0-0.2496-0.011007-0.62619-0.032004-1.1275-0.022126-0.50145-0.033189-0.87692-0.033189-1.1276 0-0.047526 0.023255-0.070668 0.068467-0.070668 0.067394 0 0.16786 0.0032738 0.30265 0.0088053 0.13468 0.0066604 0.2352 0.0099906 0.30254 0.0099906 0.068523 0 0.1712-0.0033302 0.30706-0.0099906 0.13586-0.0055315 0.2374-0.0088053 0.3048-0.0088053 0.036406 0 0.054074 0.018796 0.054074 0.057404 0 0.16013-0.0077328 0.40087-0.024271 0.72339-0.015466 0.32247-0.024327 0.5632-0.024327 0.72339 0 0.18548 0.0508 0.27827 0.15246 0.27827 0.25727 0 0.45601-0.070725 0.59853-0.21099 0.106-0.10267 0.212-0.29153 0.32026-0.5654 0.069596-0.20986 0.1822-0.51793 0.34013-0.92546 0.023255-0.054074 0.071741-0.080602 0.1458-0.080602 0.055146 0 0.14026 0.0032738 0.25406 0.0088053 0.11261 0.0066604 0.19761 0.0099906 0.25394 0.0099906 0.05746 0 0.14472-0.0022013 0.25953-0.0066604 0.11594-0.0044026 0.20213-0.006604 0.25727-0.006604 0.051929 0 0.078457 0.025343 0.078457 0.075071 0 0.070668-0.045325 0.24519-0.13586 0.52132-0.26839 0.815-0.57539 1.3241-0.92218 1.5261-0.071741 0.040866-0.10702 0.075127-0.10702 0.10047 0-0.0021449 0.19874 0.32145 0.59633 0.97078 0.39866 0.64939 0.59746 1.0359 0.59746 1.1585z" class="fil0"/>
   <path id="_130833584" d="m23.379 11.904c0 0.4384-0.18435 0.81387-0.55327 1.1265-0.32354 0.27607-0.7178 0.45167-1.1817 0.52679-0.016538 0.0022013-0.030931 0.0032738-0.041994 0.0032738-0.049671 0-0.159-0.15127-0.33014-0.45392-0.17007-0.30361-0.25513-0.48807-0.25513-0.55547 0-0.023199 0.016595-0.038664 0.048598-0.045268 0.31253-0.070668 0.52019-0.1314 0.62066-0.18107 0.22414-0.11159 0.33686-0.27838 0.33686-0.49812 0-0.14026-0.072926-0.29712-0.21985-0.46933-0.25507-0.29266-0.39308-0.45613-0.41408-0.48813-0.14907-0.2242-0.22312-0.47272-0.22312-0.74433 0-0.39432 0.18226-0.72232 0.54666-0.98399 0.29707-0.21539 0.66266-0.3556 1.0966-0.41966 0.023199-0.0021449 0.041938-0.0033302 0.055202-0.0033302 0.03206 0 0.057404 0.0254 0.077328 0.077328 0.056331 0.1568 0.1866 0.44179 0.39206 0.85366 0.0054751 0.013208 0.0087488 0.024327 0.0087488 0.033076 0 0.036463-0.018683 0.054186-0.057347 0.054186-0.017667 0-0.046397-0.0022013-0.087263-0.0088617-0.041938-0.0066604-0.07287-0.0099342-0.093923-0.0099342-0.15567 0-0.29153 0.03539-0.4086 0.10713-0.14021 0.081731-0.2098 0.19541-0.2098 0.34233 0 0.13146 0.077328 0.29379 0.23306 0.48593 0.27381 0.34459 0.41746 0.52566 0.43067 0.54333 0.1524 0.23746 0.22967 0.47266 0.22967 0.70792z" class="fil0"/>
   <path id="_130833680" d="m20.742 12.386c0 0.092738-0.018796 0.2628-0.055259 0.51127-0.038664 0.26946-0.073942 0.4296-0.1038 0.48158-0.0254 0.040866-0.061863 0.061806-0.10713 0.061806-0.018796 0-0.051929-0.0032738-0.097197-0.0099342-0.1568-0.020997-0.6162-0.032004-1.3782-0.032004-0.16561 0-0.413-0.0010724-0.741-0.0033866-0.32687-0.0022013-0.57319-0.0032738-0.73665-0.0032738-0.071741 0-0.10708-0.030931-0.10708-0.09381 0-0.24192 0.013264-0.60412 0.039793-1.0889 0.027545-0.48378 0.040809-0.84706 0.040809-1.089 0-0.24508-0.013264-0.70341-0.038664-1.3749-0.006604-0.17227-0.01874-0.4296-0.035334-0.77306l-0.0033302-0.045268c-0.0043462-0.049671 0.02207-0.073998 0.080659-0.073998 0.16008 0 0.39974 0.0044591 0.72006 0.012136 0.32026 0.0088053 0.55987 0.013264 0.72 0.013264 0.15686 0 0.39426-0.0044591 0.71125-0.013264 0.31693-0.0076764 0.55434-0.012136 0.71227-0.012136 0.11159 0 0.17667 0.041938 0.19439 0.12593 0.0099342 0.049671 0.026529 0.19987 0.049671 0.45161 0.02207 0.25067 0.034205 0.40312 0.034205 0.4572 0 0.045325-0.02207 0.068523-0.065137 0.068523-0.013208 0-0.035334-0.0011289-0.067338-0.0033302-0.57432-0.04747-1.09-0.071741-1.5472-0.071741-0.11374 0-0.1844 0.027545-0.2098 0.081675-0.011063 0.0254-0.016538 0.10826-0.016538 0.24852 0 0.14687 0.02207 0.24401 0.065137 0.29148 0.036463 0.040866 0.10606 0.060734 0.2098 0.060734 0.02207 0 0.064121-0.0010724 0.12593-0.0043462 0.062935-0.0032738 0.11481-0.0044591 0.15573-0.0044591 0.27167 0 0.54666-0.0076764 0.82499-0.023199 0.024215-0.0021449 0.082804-0.0077328 0.17769-0.016595 0.074055-0.00762 0.13152-0.012136 0.17452-0.012136 0.051929 0 0.078457 0.024384 0.078457 0.074055 0-0.045325-0.019925 0.1204-0.058533 0.49468-0.017724 0.17345-0.0254 0.34572-0.0254 0.51804 0 0.04301-0.03206 0.06508-0.093923 0.06508 0 0-0.097197-0.011007-0.29148-0.033076-0.12265-0.012136-0.40312-0.018796-0.84158-0.018796h-0.34228c-0.088392 0-0.14032 0.020997-0.15579 0.064008-0.0021449 0.011063-0.0032738 0.078457-0.0032738 0.20105 0 0.16454 0.011063 0.26946 0.032004 0.31688 0.037592 0.081788 0.17554 0.13039 0.41408 0.1458h0.47272c0.11486 0 0.28386-0.0099342 0.5102-0.030875 0.22532-0.019868 0.39426-0.030931 0.5058-0.030931 0.047526 0 0.071854 0.039737 0.071854 0.11706z" class="fil0"/>
   <path id="_130833800" d="m16.833 13.292c0 0.045212-0.0099342 0.073942-0.02873 0.083876-0.0088053 0.0066604-0.038664 0.012192-0.090536 0.016595-0.1314 0.013208-0.31693 0.019868-0.5566 0.019868-0.339 0-0.5378-0.0066604-0.59746-0.019868-0.058533-0.013208-0.088335-0.041938-0.088335-0.087263 0-0.17007 0.0077328-0.42627 0.024271-0.7686 0.015466-0.34132 0.024327-0.59746 0.024327-0.76866 0-0.083932-0.024327-0.13253-0.071741-0.14574-0.072982-0.016595-0.33358-0.025456-0.78299-0.025456-0.45065 0-0.71346 0.0088617-0.78971 0.025456-0.047413 0.011007-0.070668 0.059605-0.070668 0.14574 0 0.16894 0.005588 0.42079 0.016595 0.75545 0.0099342 0.33567 0.015466 0.58747 0.015466 0.75534 0 0.065137-0.028674 0.10273-0.087206 0.11374-0.068467 0.013208-0.27172 0.019868-0.60858 0.019868-0.2904 0-0.47599-0.0066604-0.55547-0.019868-0.062935-0.011007-0.093867-0.044139-0.093867-0.10047 0-0.23306 0.011063-0.58425 0.033133-1.0547 0.023255-0.47052 0.034262-0.82279 0.034262-1.058 0-0.2496-0.011007-0.62619-0.032004-1.1275-0.022126-0.50145-0.033189-0.87692-0.033189-1.1276 0-0.047526 0.023255-0.070668 0.068467-0.070668 0.067394 0 0.16786 0.0032738 0.30265 0.0088053 0.13468 0.0066604 0.2352 0.0099906 0.30254 0.0099906 0.068523 0 0.17345-0.0033302 0.31259-0.0099906 0.13914-0.0055315 0.24294-0.0088053 0.3114-0.0088053 0.036463 0 0.055202 0.018796 0.055202 0.057404 0 0.16233-0.012136 0.40425-0.035334 0.72666-0.024327 0.32247-0.035334 0.56438-0.035334 0.72666 0 0.075127 0.019868 0.11927 0.060734 0.13259 0.056331 0.017611 0.3324 0.025343 0.82832 0.025343 0.46154 0 0.72881-0.0077328 0.80286-0.025343 0.051872-0.013321 0.077216-0.05746 0.077216-0.13259 0-0.15567-0.0076764-0.3898-0.02207-0.70346-0.015409-0.31468-0.023142-0.54994-0.023142-0.70787 0-0.066322 0.027601-0.099398 0.080602-0.099398 0.062935 0 0.15793 0.0032738 0.28713 0.0088053 0.12813 0.0066604 0.22414 0.0099906 0.28933 0.0099906 0.062935 0 0.15793-0.0033302 0.28606-0.0099906 0.12813-0.0055315 0.22521-0.0088053 0.28933-0.0088053 0.062935 0 0.09381 0.0254 0.09381 0.077328 0 0.24847-0.0099342 0.62168-0.030875 1.1231-0.019868 0.50021-0.029859 0.87573-0.029859 1.1253 0 0.2352 0.011063 0.58747 0.033189 1.058 0.023199 0.47041 0.034205 0.8216 0.034205 1.0547z" class="fil0"/>
   <path id="_130833992" d="m12.141 12.661c0 0.034262-0.02207 0.07953-0.067282 0.13586-0.39652 0.47272-0.92444 0.709-1.5826 0.709-0.67248 0-1.2181-0.22973-1.6367-0.68913-0.40753-0.44506-0.6118-1.006-0.6118-1.683 0-0.65599 0.19992-1.2126 0.59859-1.6698 0.41633-0.47825 0.9464-0.71786 1.5891-0.71786 0.69793 0 1.2468 0.21426 1.6434 0.64386 0.04301 0.04747 0.064008 0.089408 0.064008 0.12587 0 0.040866-0.073998 0.19326-0.22425 0.45613-0.15014 0.26393-0.24401 0.4108-0.28267 0.44393-0.017667 0.016538-0.039737 0.0254-0.065193 0.0254-0.011007 0-0.06508-0.04301-0.16228-0.1292-0.11599-0.1038-0.2308-0.18446-0.34233-0.24299-0.17012-0.086077-0.34787-0.1292-0.53125-0.1292-0.31693 0-0.5698 0.11814-0.75974 0.3556-0.17452 0.21974-0.26179 0.49259-0.26179 0.81613 0 0.32687 0.087263 0.60186 0.26179 0.82493 0.18994 0.24079 0.4428 0.36226 0.75974 0.36226 0.18773 0 0.36559-0.040809 0.53453-0.12373 0.10933-0.052945 0.22194-0.1292 0.33686-0.22634 0.09381-0.081788 0.14687-0.1226 0.15793-0.1226 0.02207 0 0.04301 0.012192 0.06508 0.035334 0.034318 0.038664 0.12813 0.1734 0.28166 0.40425 0.1568 0.23961 0.2352 0.37101 0.2352 0.39528z" class="fil0"/>
   <path id="_130834304" d="m7.7262 11.804c0 0.54999-0.066322 0.92433-0.19772 1.1253-0.24181 0.3666-0.8448 0.54999-1.8089 0.54999-0.43513 0-0.77086-0.033189-1.0061-0.10047-0.37547-0.10713-0.61846-0.31366-0.73106-0.61733-0.056388-0.14907-0.083932-0.41419-0.083932-0.79632 0-0.088335 0.0032738-0.21974 0.0099342-0.39421 0.0054751-0.1756 0.0088053-0.30593 0.0088053-0.39206 0-0.2496-0.011063-0.62512-0.035334-1.1253-0.023142-0.50145-0.035334-0.87466-0.035334-1.1231 0-0.051929 0.022126-0.077328 0.067338-0.077328 0.13253 0 0.33133 0.0055315 0.59746 0.015466 0.26619 0.011063 0.46493 0.016538 0.59633 0.016538 0.054186 0 0.081788 0.023255 0.081788 0.070668 0 0.28493-0.0099342 0.71125-0.027601 1.28-0.018796 0.56879-0.027658 0.995-0.027658 1.2799 0 0.33793 0.03539 0.56653 0.10719 0.6858 0.094883 0.1612 0.29261 0.24299 0.59526 0.24299 0.44168 0 0.66254-0.21534 0.66254-0.64386 0-0.31366-0.0076764-0.78186-0.02207-1.4081-0.015409-0.62506-0.023199-1.0944-0.023199-1.407 0-0.067282 0.027658-0.10047 0.080659-0.10047 0.12807 0 0.32021-0.0054751 0.57646-0.016538 0.2562-0.0099342 0.44834-0.015466 0.57534-0.015466 0.062935 0 0.093867 0.0254 0.093867 0.077328 0 0.24847-0.0099342 0.62168-0.029802 1.1231-0.020997 0.50021-0.030931 0.87573-0.030931 1.1253 0 0.069539 0.0010724 0.1734 0.0033866 0.31253 0.0021449 0.13919 0.0032738 0.24294 0.0032738 0.31253z" class="fil1"/>
   <path id="_130833776" d="m3.2126 13.447c-0.18548 0-0.4274-0.0044591-0.72446-0.013321-0.38873-0.0088053-0.6306-0.01428-0.72559-0.016482l-0.9674-0.012248c-0.096068 0.0023142-0.23526-0.0021449-0.41633-0.013208-0.062935-0.011007-0.09381-0.044139-0.09381-0.10047 0-0.23526 0.0032738-0.58753 0.011007-1.0557 0.0076764-0.46945 0.011063-0.82172 0.011063-1.0569 0-0.2496-0.0077893-0.62512-0.02207-1.1243-0.015522-0.49914-0.023255-0.87353-0.023255-1.1242 0-0.047526 0.032004-0.071797 0.097197-0.071797s0.1612 0.0032738 0.28933 0.0099342c0.12813 0.006604 0.2242 0.0099342 0.28606 0.0099342 0.071741 0 0.1778-0.0033302 0.31801-0.011007 0.13919-0.0077328 0.24519-0.01112 0.31699-0.01112 0.032004 0 0.04747 0.019868 0.045212 0.06079l-0.0032738 0.041994c-0.026529 0.4064-0.055146 1.0149-0.087263 1.8288l-0.0032738 0.85366c0 0.27612 0.0010724 0.4782 0.0032738 0.6052 0.0022578 0.025343 0.0044591 0.051872 0.0055315 0.077328 0.0022013 0.026472 0.018796 0.041938 0.048655 0.048542h0.084948c0.19332 0 0.48486-0.0099906 0.87138-0.030931 0.3876-0.019868 0.67806-0.030931 0.87246-0.030931 0.05746 0 0.087263 0.025456 0.087263 0.075127 0 0.36886-0.027658 0.68693-0.080602 0.95419-0.01112 0.056275-0.034318 0.089464-0.068523 0.10047-0.011007 0.0044026-0.055202 0.0066604-0.13253 0.0066604z" class="fil0"/>
   <polygon id="_130833560" points="7.0231 7.784 27.87 7.784 27.87 8.1805 7.0231 8.1805" class="fil2"/>
   <polygon id="_130833344" points="0 7.784 4.6236 7.784 4.6236 8.1805 0 8.1805" class="fil2"/>
   <path id="_130832720" d="m5.7246 0c-0.05334 0.47707 0.56433 1.0079 0.67772 1.5152 0.18232 0.76183 0.010555 1.392-0.053735 2.0241-0.036632 0.55112 0.19834 0.94917 0.42469 1.0292 0.19987 0.062992 0.25705-0.8106 0.080659-1.4939 0.35498 0.66807 0.64499 1.4018 0.43332 2.5408-0.1914 1.03-1.2397 1.4598-1.6862 1.5803 0.16566-1.6275-1.2032-1.2083-1.263-3.2472-0.050574-0.49524 0.64516-1.9145 0.61614-2.2066 0.079925 0.4393-0.23097 1.459 0.15675 2.247 0.040527-0.23193-0.088617-0.84785 0.35622-1.6976 0.48875-1.1945-0.013039-1.632 0.25744-2.2913z" class="fil2"/>
  </g>
  <g id="_130832240">
   <path id="_130519456" d="m10.517 15.597h1.0971v-0.0889c0-0.16832-0.0063218-0.30232-0.018965-0.4016-0.013095-0.099793-0.034262-0.1774-0.064064-0.23289 0.056388-0.029802 0.1038-0.051026 0.14213-0.062766 0.038382-0.01174 0.074055-0.018006 0.10741-0.018006 0.054186 0 0.091665 0.015353 0.11238 0.04555 0.021223 0.030706 0.03206 0.081223 0.03206 0.15161 0 0.023029-0.004064 0.12728-0.012192 0.31276-0.0076764 0.18553-0.01174 0.35927-0.01174 0.52171 0 0.24553 0.0063218 0.4301 0.018965 0.55236 0.013095 0.12277 0.036124 0.21579 0.069483 0.27895-0.051872 0.029351-0.097479 0.049614-0.13671 0.060903-0.039285 0.011289-0.076764 0.017159-0.11283 0.017159-0.056444 0-0.095221-0.01445-0.11599-0.043744-0.020772-0.028899-0.031157-0.078119-0.031157-0.14805 0-0.004064 0.0031609-0.088448 0.0085795-0.25231 0.0058702-0.16425 0.0085795-0.32083 0.0085795-0.47069h-1.0958v0.11644c0 0.19631 0.0063218 0.35063 0.018965 0.46256 0.013095 0.11193 0.035221 0.19767 0.066774 0.25772-0.052775 0.028448-0.098382 0.04826-0.13671 0.060452-0.038382 0.01174-0.074055 0.017611-0.10651 0.017611-0.05825 0-0.097479-0.014901-0.1178-0.044252-0.02032-0.029294-0.030254-0.083029-0.030254-0.16064 0-0.036124 0.0045155-0.15522 0.013998-0.3574 0.0090311-0.20264 0.013998-0.38636 0.013998-0.55242 0-0.20805-0.0067733-0.36869-0.019868-0.48243-0.013547-0.11374-0.036519-0.20128-0.070386-0.26309 0.053678-0.028899 0.099737-0.049671 0.13767-0.062314 0.037874-0.012192 0.073547-0.018457 0.10696-0.018457 0.054582 0 0.092907 0.015353 0.11458 0.04555 0.021675 0.030706 0.03206 0.08032 0.03206 0.14896 0 0.013095-0.0027093 0.0889-0.0085795 0.22651-0.0054186 0.13812-0.0099342 0.26585-0.012192 0.38314zm-0.69319 1.0588c-0.050969 0.028448-0.097028 0.04826-0.13767 0.060452-0.040132 0.01174-0.078514 0.017611-0.11458 0.017611-0.056444 0-0.09477-0.014901-0.11464-0.044647-0.019868-0.030254-0.029802-0.083537-0.029802-0.16024 0-0.03793 0.004064-0.15748 0.012192-0.35876 0.0076764-0.20173 0.01174-0.38501 0.01174-0.55106 0-0.21212-0.0063218-0.37547-0.019417-0.4892-0.012644-0.11374-0.03477-0.19902-0.066322-0.25631 0.055485-0.029802 0.10245-0.051026 0.14122-0.062766 0.038834-0.01174 0.075861-0.018006 0.11103-0.018006 0.054638 0 0.092964 0.015353 0.11464 0.04555 0.021223 0.030706 0.03206 0.081223 0.03206 0.15161 0 0.010442-0.0045155 0.12006-0.013547 0.32856-0.0094826 0.2085-0.013998 0.41204-0.013998 0.61152 0 0.20083 0.0063218 0.35656 0.018965 0.46753 0.013095 0.11057 0.035616 0.19676 0.068128 0.25818zm-0.87776-1.7781c-0.017611 0.060903-0.030254 0.1209-0.037027 0.18096-0.0072249 0.06-0.010837 0.12593-0.010837 0.19722 0 0.28476 0.018062 0.54469 0.053735 0.77983 0.035616 0.2356 0.090254 0.44275 0.16335 0.62145-0.052775 0.028391-0.098834 0.04826-0.13761 0.059549-0.038834 0.011289-0.077216 0.017159-0.11509 0.017159-0.042898 0-0.077159-0.0094826-0.10245-0.028448-0.024835-0.018965-0.042898-0.047357-0.053283-0.085287-0.0054186-0.022126-0.015353-0.18367-0.029294-0.48514-0.013998-0.30147-0.03206-0.57088-0.054186-0.80783-0.15974 0.30147-0.34115 0.65887-0.54469 1.0723-0.037027 0.076764-0.062766 0.12864-0.076764 0.15618-0.017554 0.034262-0.036068 0.06-0.055485 0.077159s-0.042898 0.025739-0.069934 0.025739c-0.053735 0-0.1047-0.051929-0.15212-0.15618-0.010837-0.021618-0.018909-0.038777-0.025287-0.051421-0.14258-0.28973-0.26309-0.53165-0.36147-0.72525-0.098382-0.19315-0.16651-0.32399-0.20444-0.39172-0.011289 0.17238-0.023932 0.42107-0.037422 0.74557-0.013998 0.32444-0.029802 0.51263-0.048316 0.56456-0.0099342 0.029802-0.025287 0.052324-0.046962 0.067225-0.021618 0.015353-0.050066 0.022578-0.085287 0.022578-0.026585 0-0.057291-0.0058702-0.092512-0.017159-0.035165-0.011289-0.079868-0.031157-0.13355-0.059549 0.071289-0.17786 0.12497-0.38495 0.16109-0.62145 0.036124-0.23605 0.054186-0.49868 0.054186-0.78796 0-0.069483-0.0036124-0.13406-0.010837-0.19315-0.0076764-0.058702-0.019417-0.1178-0.035221-0.1769 0.035221-0.030706 0.066322-0.052832 0.093867-0.065475 0.027093-0.012587 0.056839-0.01936 0.088448-0.01936 0.096124 0 0.23966 0.19902 0.43101 0.59662 0.071289 0.14709 0.12903 0.26444 0.17328 0.35153 0.099737 0.19722 0.16696 0.3263 0.20173 0.38585 0.03477 0.06 0.052832 0.090254 0.054638 0.090254 0.012587 0 0.12587-0.21703 0.33979-0.65074 0.090254-0.18141 0.16205-0.3263 0.21573-0.43507 0.058194-0.1187 0.11103-0.20489 0.15838-0.25812 0.047865-0.053735 0.097479-0.08032 0.14941-0.08032 0.029351 0 0.057291 0.0067733 0.084836 0.01936 0.027545 0.012644 0.059549 0.03477 0.096576 0.065475zm-2.9325 1.2469h-0.68235c-0.065927 0.14534-0.11283 0.26134-0.14083 0.34753-0.027545 0.08619-0.041543 0.16064-0.041543 0.222l-0.0013547 0.035673c-0.033358 0.0027093-0.055033 0.0045155-0.064967 0.0054186-0.0094826 0.00090311-0.018965 0.0013547-0.027545 0.0013547-0.064516 0-0.11368-0.013547-0.14754-0.040188-0.033866-0.027037-0.051026-0.064516-0.051026-0.11323 0-0.045607 0.085739-0.24102 0.25727-0.58583 0.17148-0.34431 0.32038-0.66249 0.4463-0.95447-0.011289-0.016708-0.025287-0.034318-0.041091-0.052832-0.015748-0.018457-0.035616-0.040132-0.059549-0.064967 0.038834-0.046454 0.073095-0.08032 0.10245-0.10109 0.029802-0.020715 0.061355-0.031101 0.09477-0.031101 0.04651 0 0.089351 0.026134 0.12773 0.078965 0.038382 0.052324 0.081675 0.13761 0.12999 0.25586 0.041486 0.10109 0.098382 0.24282 0.17057 0.42424 0.24412 0.61423 0.41656 0.96937 0.5172 1.0655-0.041543 0.044252-0.077667 0.074901-0.10877 0.092512-0.030706 0.017611-0.064121 0.026642-0.10019 0.026642-0.10064 0-0.20896-0.15567-0.3254-0.46662-0.025739-0.067282-0.043801-0.11554-0.05413-0.14534zm-0.32405-0.8146l-0.042446 0.10064c-0.10019 0.23605-0.17148 0.40301-0.21392 0.50094h0.49688c-0.040583-0.10741-0.083029-0.21708-0.12813-0.3285-0.044704-0.11148-0.082183-0.20264-0.11238-0.27308zm-2.1838 0.31592c0.19902-0.19631 0.35656-0.36373 0.47255-0.50094 0.11599-0.13761 0.1927-0.25315 0.23058-0.34657 0.085739 0.021223 0.14625 0.044647 0.18186 0.070838 0.035673 0.02619 0.053735 0.056839 0.053735 0.092964 0 0.055485-0.13676 0.21257-0.41024 0.47069-0.11599 0.10967-0.2058 0.19406-0.26805 0.25411 0.029746 0.032455 0.078514 0.083481 0.14529 0.15342 0.44501 0.46352 0.71667 0.69861 0.8146 0.70448-0.017611 0.078514-0.042446 0.13676-0.073998 0.17509-0.03206 0.038382-0.069991 0.057799-0.11374 0.057799-0.038834 0-0.078965-0.013547-0.12051-0.040188-0.041486-0.027093-0.095221-0.075805-0.16109-0.14619-0.010837-0.01174-0.10425-0.11599-0.28024-0.31276-0.1765-0.19722-0.33398-0.36017-0.4721-0.4901v0.14574c0 0.20625 0.0049671 0.36418 0.015804 0.47481 0.010386 0.11007 0.028448 0.19535 0.054186 0.25631-0.049219 0.031552-0.09206 0.05413-0.12773 0.068128-0.035673 0.013547-0.069934 0.02032-0.10245 0.02032-0.053678 0-0.091609-0.018965-0.11419-0.056896-0.022578-0.037874-0.033866-0.095616-0.033866-0.17328 0-0.042841 0.004064-0.16425 0.012644-0.36328 0.008128-0.19947 0.012644-0.37682 0.012644-0.533 0-0.21573-0.0063218-0.37682-0.018514-0.48243-0.012587-0.10606-0.034713-0.18954-0.067677-0.25135 0.052832-0.027996 0.098382-0.048316 0.13586-0.060057 0.037422-0.012136 0.073095-0.018006 0.10741-0.018006 0.056388 0 0.095221 0.014393 0.11594 0.043744 0.020772 0.028899 0.031157 0.078514 0.031157 0.14805 0 0.013095-0.0013547 0.046905-0.004064 0.10064-0.010837 0.20619-0.015804 0.3854-0.015804 0.53791z" class="fil3"/>
   <path id="_130833944" d="m24.175 16.129h-0.68235c-0.065927 0.14534-0.11283 0.26128-0.14077 0.34747-0.027601 0.086247-0.041543 0.1607-0.041543 0.22205l-0.0013547 0.035673c-0.033415 0.0027093-0.05509 0.0045155-0.065024 0.0054186-0.0094262 0.00090311-0.018909 0.0013547-0.027545 0.0013547-0.064459 0-0.11374-0.013547-0.14754-0.040132-0.033866-0.027093-0.050969-0.064572-0.050969-0.11328 0-0.045607 0.085739-0.24102 0.25722-0.58583 0.17148-0.34431 0.32043-0.66249 0.44636-0.95447-0.011289-0.016708-0.025287-0.034318-0.041091-0.052832-0.015804-0.018457-0.035673-0.040188-0.059549-0.064967 0.038834-0.04651 0.073095-0.08032 0.10239-0.10109 0.029802-0.020772 0.061411-0.031101 0.094826-0.031101 0.046454 0 0.089351 0.026134 0.12768 0.078965 0.038382 0.052324 0.081675 0.13761 0.12999 0.25586 0.041543 0.10109 0.098382 0.24282 0.17057 0.42424 0.24412 0.61423 0.41656 0.96943 0.5172 1.0655-0.041543 0.044252-0.077611 0.074958-0.10877 0.092568-0.030706 0.017554-0.064064 0.026585-0.10019 0.026585-0.10064 0-0.20896-0.15573-0.32534-0.46662-0.025739-0.067282-0.043801-0.11554-0.054186-0.14534zm-0.32405-0.8146l-0.04239 0.10064c-0.10019 0.23605-0.17153 0.40301-0.21392 0.50094h0.49688c-0.04064-0.10741-0.083029-0.21703-0.12818-0.32856-0.044704-0.11142-0.082126-0.20258-0.11238-0.27302zm-2.4975 0.28708h1.0971v-0.088956c0-0.16832-0.0063218-0.30237-0.018965-0.40166-0.013095-0.099737-0.034318-0.17735-0.064064-0.23283 0.056388-0.029802 0.1038-0.051026 0.14213-0.062766 0.038382-0.01174 0.074055-0.018006 0.10741-0.018006 0.054186 0 0.091609 0.015296 0.11238 0.04555 0.021223 0.030706 0.03206 0.081223 0.03206 0.15161 0 0.023029-0.004064 0.12728-0.012192 0.31276-0.0076764 0.18553-0.01174 0.35927-0.01174 0.52171 0 0.24548 0.0063218 0.4301 0.018965 0.55242 0.013095 0.12277 0.036124 0.21573 0.069483 0.27889-0.051872 0.029351-0.097479 0.049614-0.13671 0.060903-0.039285 0.011289-0.076764 0.017159-0.11283 0.017159-0.056444 0-0.095221-0.01445-0.11599-0.043744-0.020772-0.028899-0.031157-0.078119-0.031157-0.14805 0-0.004064 0.0031609-0.088448 0.0085795-0.25225 0.0058702-0.16431 0.0085795-0.32088 0.0085795-0.47069h-1.0958v0.11639c0 0.19631 0.0063218 0.35069 0.018965 0.46262 0.013039 0.11193 0.035221 0.19767 0.066774 0.25767-0.052775 0.028448-0.098382 0.04826-0.13676 0.060508-0.038326 0.011684-0.073942 0.017554-0.10645 0.017554-0.05825 0-0.097479-0.014901-0.1178-0.044252-0.02032-0.029294-0.030254-0.083029-0.030254-0.16064 0-0.036068 0.0045155-0.15522 0.013998-0.35746 0.0090311-0.20258 0.013998-0.3863 0.013998-0.55236 0-0.20805-0.0068298-0.36875-0.019868-0.48243-0.013547-0.11374-0.036576-0.20128-0.070386-0.26309 0.053678-0.028899 0.099737-0.049671 0.13761-0.062314 0.03793-0.012192 0.073547-0.018457 0.10696-0.018457 0.054638 0 0.092964 0.015296 0.11464 0.04555 0.021675 0.030706 0.032004 0.080376 0.032004 0.1489 0 0.013152-0.0026529 0.088956-0.0085231 0.22657-0.0054186 0.13806-0.0099342 0.26585-0.012192 0.3832zm-1.6292 0.94984c0.049219-0.03968 0.092568-0.085287 0.12954-0.13671 0.036971-0.051872 0.073152-0.11554 0.10832-0.19135l0.03968-0.087093c-0.18683-0.44094-0.31727-0.72435-0.39122-0.85028-0.074055-0.12587-0.14218-0.19451-0.20489-0.20489 0.021167-0.083932 0.049163-0.148 0.083932-0.19315 0.034713-0.044647 0.075805-0.067225 0.12232-0.067225 0.033358 0 0.060903 0.0076764 0.082126 0.023029s0.040583 0.041035 0.058194 0.077159c0.004064 0.0099342 0.050518 0.12186 0.13851 0.33528 0.088504 0.21392 0.17379 0.40617 0.25682 0.57726 0.10741-0.22566 0.19089-0.41611 0.25089-0.57133 0.060057-0.15483 0.089859-0.26179 0.089859-0.31998 0-0.011289-0.00095955-0.022126-0.0022578-0.03206-0.0018627-0.010386-0.0054186-0.023481-0.010837-0.039285 0.018514-0.0062653 0.03381-0.011232 0.046454-0.015748 0.06683-0.023029 0.11554-0.034318 0.14534-0.034318 0.038834 0 0.069483 0.010386 0.09206 0.031609 0.022126 0.021167 0.033415 0.04826 0.033415 0.080772 0 0.038777-0.062314 0.18773-0.18779 0.44676-0.12497 0.25908-0.23103 0.49643-0.31857 0.71125-0.02619 0.063613-0.060508 0.14896-0.10154 0.25682-0.096124 0.2518-0.17825 0.37772-0.24598 0.37772-0.035221 0-0.070838-0.01445-0.10651-0.044252-0.035616-0.029351-0.071741-0.072644-0.10786-0.12999zm-0.91609-0.42232h-0.68235c-0.065927 0.14534-0.11283 0.26128-0.14083 0.34747-0.027545 0.086247-0.041543 0.1607-0.041543 0.22205l-0.0013547 0.035673c-0.033358 0.0027093-0.055033 0.0045155-0.064967 0.0054186-0.0094826 0.00090311-0.018909 0.0013547-0.027545 0.0013547-0.064516 0-0.11374-0.013547-0.14754-0.040132-0.033866-0.027093-0.050969-0.064572-0.050969-0.11328 0-0.045607 0.085739-0.24102 0.25722-0.58583 0.17148-0.34431 0.32043-0.66249 0.4463-0.95447-0.011289-0.016708-0.025231-0.034318-0.041035-0.052832-0.015804-0.018457-0.035673-0.040188-0.059605-0.064967 0.038834-0.04651 0.073095-0.08032 0.10245-0.10109 0.029802-0.020772 0.061355-0.031101 0.09477-0.031101 0.04651 0 0.089408 0.026134 0.12773 0.078965 0.038382 0.052324 0.081675 0.13761 0.12994 0.25586 0.041543 0.10109 0.098382 0.24282 0.17063 0.42424 0.24412 0.61423 0.41656 0.96943 0.5172 1.0655-0.041543 0.044252-0.077667 0.074958-0.10877 0.092568-0.030706 0.017554-0.064121 0.026585-0.10019 0.026585-0.10064 0-0.20896-0.15573-0.3254-0.46662-0.025682-0.067282-0.043801-0.11554-0.05413-0.14534zm-0.32405-0.8146l-0.042446 0.10064c-0.10019 0.23605-0.17148 0.40301-0.21387 0.50094h0.49682c-0.040583-0.10741-0.083029-0.21703-0.12813-0.32856-0.044704-0.11142-0.082183-0.20258-0.11238-0.27302zm-1.1143-0.21167c-0.061806-0.02794-0.11915-0.047357-0.17283-0.057291-0.053283-0.010386-0.11103-0.015353-0.17379-0.015353-0.24412 0-0.44128 0.06683-0.59159 0.20038-0.15031 0.1336-0.22521 0.3096-0.22521 0.52804 0 0.21618 0.070894 0.39263 0.21257 0.53024 0.14213 0.13767 0.32264 0.20625 0.54203 0.20625 0.068128 0 0.13264-0.0080715 0.19445-0.024327 0.061863-0.016256 0.13044-0.045155 0.2063-0.086642 0.035165 0.046905 0.059097 0.083876 0.071289 0.11097 0.012587 0.027545 0.018457 0.05238 0.018457 0.075409 0 0.060903-0.041486 0.10741-0.12457 0.14032-0.083424 0.032512-0.19626 0.048768-0.33799 0.048768-0.15167 0-0.29153-0.020772-0.42062-0.062258-0.12858-0.041091-0.24051-0.10154-0.33579-0.18102-0.11464-0.096068-0.19987-0.20529-0.25631-0.32715-0.056444-0.12232-0.084836-0.25682-0.084836-0.40392 0-0.15528 0.034713-0.29831 0.1038-0.42965 0.069483-0.13135 0.17334-0.24909 0.3114-0.3534 0.10245-0.075748 0.22341-0.13445 0.36373-0.17644 0.13992-0.041486 0.28702-0.06271 0.44049-0.06271 0.11955 0 0.20625 0.011232 0.25902 0.032907 0.052832 0.022126 0.079417 0.059605 0.079417 0.11238 0 0.021223-0.0058138 0.04651-0.017554 0.075409-0.011289 0.029294-0.03206 0.069031-0.061863 0.1191z" class="fil3"/>
   <path id="_130832888" d="m14.171 16.322c-0.11385-0.095786-0.21793-0.19665-0.31185-0.30215-0.093923-0.10595-0.17859-0.21697-0.25445-0.33358-0.098552 0.04905-0.17396 0.11012-0.22532 0.18463-0.051364 0.073998-0.077272 0.15635-0.077272 0.24796 0 0.11983 0.040245 0.21607 0.12124 0.28871 0.080941 0.072192 0.18875 0.10826 0.32337 0.10826 0.083312 0 0.15962-0.0162 0.22995-0.04809 0.069878-0.031947 0.13468-0.080546 0.19434-0.14574zm0.15866 0.12999c-0.099455 0.094826-0.19846 0.1638-0.29701 0.20591-0.098552 0.042559-0.20772 0.063838-0.328 0.063838-0.19434 0-0.34888-0.051364-0.46363-0.15454s-0.1721-0.24107-0.1721-0.41453c0-0.13648 0.03793-0.25863 0.11334-0.36598 0.075409-0.10781 0.18694-0.19756 0.33404-0.26975-0.020772-0.04905-0.036068-0.095786-0.046228-0.14111-0.0097084-0.045325-0.014845-0.090649-0.014845-0.13693 0-0.15731 0.050461-0.28222 0.15133-0.37479 0.10036-0.092512 0.2369-0.1388 0.40854-0.1388 0.10312 0 0.18689 0.017611 0.25214 0.052775 0.06525 0.035165 0.097592 0.079586 0.097592 0.13276 0 0.029633-0.0097084 0.056952-0.029577 0.0819-0.019925 0.025005-0.049953 0.046736-0.089746 0.065701-0.035165-0.044422-0.074958-0.07682-0.11983-0.0981-0.044873-0.02128-0.094431-0.031891-0.14856-0.031891-0.086472 0-0.15545 0.028222-0.2063 0.084215-0.051364 0.055936-0.07682 0.1323-0.07682 0.22899 0 0.12536 0.049502 0.26139 0.1485 0.40809 0.099003 0.14619 0.25264 0.31044 0.46126 0.4918 0.037027-0.071233 0.064798-0.14066 0.083312-0.20867 0.018514-0.067564 0.02777-0.13326 0.02777-0.19614v-0.013885c0.024497-0.005588 0.046228-0.0092568 0.065193-0.011571s0.036124-0.0032738 0.051364-0.0032738c0.042559 0 0.073603 0.0083537 0.09302 0.025005s0.029125 0.043518 0.029125 0.080489c0 0.044422-0.015692 0.10504-0.047639 0.18141-0.031439 0.076312-0.079135 0.16933-0.14342 0.27991 0.073095 0.056896 0.1388 0.099003 0.1971 0.12722 0.058758 0.02777 0.11103 0.042107 0.15821 0.042107 0.0064911 0 0.013434-0.000508 0.020828-0.0014111 0.0078457-0.00090311 0.016651-0.0023142 0.026811-0.0041769 0.010668 0.022691 0.018965 0.044422 0.025005 0.06525 0.0060395 0.020376 0.0088053 0.041204 0.0088053 0.061976 0 0.041656-0.011571 0.074506-0.034713 0.09906-0.023142 0.024497-0.053678 0.036519-0.091609 0.036519-0.049502 0-0.11289-0.02128-0.19016-0.06429-0.077724-0.043067-0.16194-0.10459-0.2531-0.18508z" class="fil3"/>
  </g>
 </g>
</svg>
