<?xml version="1.0" encoding="UTF-8" standalone="no"?>
<!DOCTYPE svg  PUBLIC '-//W3C//DTD SVG 1.1//EN'  'http://www.w3.org/Graphics/SVG/1.1/DTD/svg11.dtd'>
<!-- Creator: CorelDRAW -->
<svg style="shape-rendering:geometricPrecision;text-rendering:geometricPrecision;image-rendering:optimizeQuality" xmlns="http://www.w3.org/2000/svg" fill-rule="evenodd" xml:space="preserve" height="17.755mm" width="37.605mm" clip-rule="evenodd" xmlns:xlink="http://www.w3.org/1999/xlink" viewBox="0 0 9.5599 4.51368">
 <defs>
  <style type="text/css">
   <![CDATA[
    .fil2 {fill:#DA251D}
    .fil0 {fill:#1F1A17;fill-rule:nonzero}
    .fil1 {fill:#DA251D;fill-rule:nonzero}
   ]]>
  </style>
 </defs>
 <g id="Слой_x0020_1">
  <path class="fil0" d="m9.5599 4.3985c0 0.030608-0.013118 0.050666-0.039378 0.059792-0.021507 0.0072707-0.077664 0.01055-0.1688 0.01055-0.087833 0-0.15164-0.0032794-0.19247-0.01055-0.018965-0.0036608-0.031726-0.0072961-0.037929-0.011287-0.0058216-0.0040421-0.013474-0.01388-0.022956-0.030278-0.051784-0.095535-0.10352-0.19104-0.15456-0.28617-0.08496-0.15385-0.1356-0.23879-0.15164-0.25447-0.076952 0.02771-0.11557 0.047768-0.11557 0.059792 0 0.053589 0.0021609 0.13418 0.0065588 0.24207 0.0040167 0.10789 0.0061775 0.18883 0.0061775 0.2428 0 0.022219-0.0094569 0.034625-0.028778 0.037548-0.036836 0.0058216-0.1039 0.0083892-0.20088 0.0083892-0.092231 0-0.15347-0.0025676-0.18339-0.0083892-0.02077-0.0043726-0.030964-0.015329-0.030964-0.033176 0-0.076952 0.0036353-0.19285 0.010931-0.34815 0.0076774-0.15533 0.011313-0.27161 0.011313-0.34925 0-0.082392-0.0036353-0.2067-0.010576-0.3722-0.0072961-0.16552-0.010957-0.28948-0.010957-0.37223 0-0.015685 0.0076774-0.023337 0.022626-0.023337 0.022244 0 0.055394 0.0010931 0.099882 0.0029235 0.044463 0.0021863 0.077638 0.0032794 0.099882 0.0032794 0.0226 0 0.056513-0.0010931 0.10136-0.0032794 0.044844-0.0018304 0.078376-0.0029235 0.10062-0.0029235 0.012024 0 0.017846 0.0062029 0.017846 0.018965 0 0.052852-0.0025422 0.13232-0.0080079 0.23879-0.0051098 0.10644-0.0080333 0.18591-0.0080333 0.23879 0 0.061241 0.016778 0.091875 0.050335 0.091875 0.084909 0 0.15052-0.023363 0.19758-0.069656 0.03498-0.033887 0.069986-0.096222 0.1057-0.18665 0.022981-0.069275 0.060148-0.17099 0.11229-0.3055 0.0076774-0.017846 0.023693-0.026617 0.048124-0.026617 0.018228 0 0.046293 0.0010931 0.083867 0.0029235 0.037167 0.0021863 0.065232 0.0032794 0.083816 0.0032794 0.018965 0 0.047768-0.00071181 0.085672-0.0021863 0.038285-0.001449 0.066732-0.0021863 0.08496-0.0021863 0.017109 0 0.02588 0.0083892 0.02588 0.024786 0 0.023337-0.014948 0.080943-0.044844 0.17208-0.088595 0.26904-0.18995 0.4371-0.30443 0.50381-0.023668 0.013474-0.035336 0.024786-0.035336 0.03315 0-0.00071181 0.065639 0.10611 0.19687 0.32047 0.13161 0.21436 0.19722 0.34195 0.19722 0.38242z"/>
  <path class="fil0" d="m8.046 3.9668c0 0.14473-0.060885 0.26868-0.18266 0.37187-0.1068 0.091112-0.23696 0.14907-0.39007 0.17389-0.0054657 0.00071181-0.01022 0.0010677-0.013855 0.0010677-0.016397 0-0.052496-0.049929-0.10898-0.14984-0.056157-0.10024-0.084223-0.16112-0.084223-0.18337 0-0.007652 0.0054657-0.012762 0.016041-0.014923 0.10319-0.023337 0.17172-0.043395 0.2049-0.059792 0.073978-0.036836 0.11117-0.0919 0.11117-0.16443 0-0.046293-0.024074-0.098078-0.072554-0.15495-0.084197-0.096578-0.12978-0.15055-0.13669-0.16112-0.049217-0.074003-0.073647-0.15604-0.073647-0.2457 0-0.13016 0.060174-0.23843 0.18044-0.32482 0.098078-0.071105 0.21876-0.1174 0.36203-0.13852 0.0076266-0.00073723 0.01383-0.0011186 0.018202-0.0011186 0.010601 0 0.018965 0.0083892 0.025524 0.025524 0.018609 0.051784 0.061623 0.14584 0.12942 0.2818 0.001805 0.0043726 0.0028981 0.0080333 0.0028981 0.010931 0 0.01205-0.0061775 0.017872-0.018939 0.017872-0.0058216 0-0.015304-0.00071181-0.028803-0.0029235-0.013855-0.0021863-0.024049-0.0032794-0.030989-0.0032794-0.051403 0-0.096247 0.011694-0.13489 0.035387-0.046293 0.026973-0.069275 0.064495-0.069275 0.113 0 0.043395 0.025524 0.096984 0.076952 0.16039 0.0904 0.11376 0.13779 0.17353 0.14216 0.17938 0.05031 0.078376 0.075833 0.15601 0.075833 0.23368z"/>
  <path class="fil0" d="m7.067 4.1262c0 0.030608-0.0062029 0.086739-0.018253 0.16878-0.012762 0.088951-0.024405 0.1418-0.034243 0.15896-0.0084146 0.013474-0.020439 0.020414-0.035387 0.020414-0.0061775 0-0.017134-0.0010931-0.032082-0.0032794-0.051759-0.0069402-0.20343-0.010576-0.45498-0.010576-0.054657 0-0.13631-0.00035591-0.24458-0.0011186-0.10792-0.00071181-0.18922-0.0010677-0.24319-0.0010677-0.023693 0-0.035336-0.01022-0.035336-0.030989 0-0.07985 0.0043471-0.19941 0.013118-0.35946 0.009101-0.15968 0.013474-0.27959 0.013474-0.35946 0-0.080892-0.0043726-0.23218-0.012762-0.45386-0.0021863-0.056843-0.0061775-0.1418-0.011669-0.25518l-0.0010931-0.014923c-0.0014236-0.016422 0.0072961-0.024456 0.026617-0.024456 0.052852 0 0.13196 0.0014745 0.2377 0.0040167 0.10573 0.0029235 0.18484 0.004398 0.2377 0.004398 0.051759 0 0.13016-0.0014745 0.23477-0.004398 0.10464-0.0025422 0.18299-0.0040167 0.23513-0.0040167 0.036836 0 0.058343 0.013855 0.064165 0.041565 0.0032794 0.016422 0.0087706 0.065995 0.016422 0.1491 0.0072707 0.082748 0.011287 0.13308 0.011287 0.15093 0 0.014948-0.0072961 0.0226-0.021507 0.0226-0.0043471 0-0.011669-0.00035591-0.022244-0.0010931-0.18957-0.01566-0.35982-0.023693-0.51075-0.023693-0.037523 0-0.06086 0.009101-0.069249 0.026973-0.0036353 0.0083892-0.0054657 0.035743-0.0054657 0.082036 0 0.04848 0.0072961 0.080562 0.021507 0.096222 0.01205 0.013499 0.035006 0.020058 0.069249 0.020058 0.0072961 0 0.021176-0.00035591 0.04159-0.001449 0.02077-0.0010931 0.037879-0.0014745 0.051403-0.0014745 0.089663 0 0.18044-0.0025168 0.27232-0.007652 0.0080079-0.00071181 0.027328-0.0025422 0.058674-0.0054657 0.02443-0.0025422 0.043395-0.0040167 0.057606-0.0040167 0.017134 0 0.02588 0.0080333 0.02588 0.024456 0-0.014974-0.0065588 0.039734-0.019321 0.16328-0.005847 0.05725-0.0083638 0.11412-0.0083638 0.17101 0 0.014211-0.010601 0.021482-0.031015 0.021482 0 0-0.032082-0.0036353-0.096222-0.010931-0.040472-0.0039912-0.13308-0.0061775-0.27781-0.0061775h-0.113c-0.029159 0-0.046319 0.0069148-0.051403 0.021126-0.00071181 0.0036353-0.0010931 0.02588-0.0010931 0.066376 0 0.054301 0.0036608 0.088926 0.010576 0.10459 0.012406 0.026998 0.057936 0.043039 0.13669 0.048149h0.15604c0.037929 0 0.093705-0.0033048 0.16842-0.01022 0.074384-0.0065588 0.13016-0.010194 0.16697-0.010194 0.015685 0 0.023719 0.013118 0.023719 0.038641z"/>
  <path class="fil0" d="m5.7697 4.4251c0 0.014923-0.0033048 0.024405-0.0094824 0.027684-0.0029235 0.0022117-0.012762 0.0040421-0.029896 0.0054911-0.04337 0.0043471-0.10464 0.0065588-0.18375 0.0065588-0.11191 0-0.17752-0.0022117-0.19722-0.0065588-0.019321-0.0043726-0.029159-0.013855-0.029159-0.028803 0-0.056157 0.0025676-0.14074 0.0080079-0.25374 0.0051098-0.11267 0.0080333-0.19722 0.0080333-0.25374 0-0.02771-0.0080333-0.043751-0.023693-0.048124-0.024074-0.0054657-0.1101-0.0083892-0.25846-0.0083892-0.14877 0-0.23551 0.0029235-0.26068 0.0083892-0.01566 0.0036608-0.023312 0.019702-0.023312 0.048124 0 0.055776 0.0018304 0.1389 0.0054657 0.24936 0.0032794 0.11081 0.0050844 0.19394 0.0050844 0.24936 0 0.021507-0.0094569 0.033887-0.028778 0.037548-0.0226 0.0043471-0.089688 0.0065588-0.20088 0.0065588-0.095866 0-0.15713-0.0022117-0.18337-0.0065588-0.02077-0.0036608-0.030989-0.014592-0.030989-0.033176 0-0.076952 0.0036353-0.19285 0.010931-0.34815 0.0076774-0.15533 0.011313-0.27161 0.011313-0.34925 0-0.082392-0.0036353-0.2067-0.01055-0.3722-0.0073215-0.16552-0.010957-0.28948-0.010957-0.37223 0-0.015685 0.007652-0.023337 0.0226-0.023337 0.022244 0 0.05542 0.0010931 0.099908 0.0029235 0.044463 0.0021863 0.077613 0.0032794 0.099857 0.0032794 0.022626 0 0.05725-0.0010931 0.10319-0.0032794 0.045937-0.0018304 0.080206-0.0029235 0.10281-0.0029235 0.012024 0 0.018202 0.0062029 0.018202 0.018965 0 0.053589-0.0039912 0.13344-0.011643 0.23988-0.0080333 0.10644-0.011669 0.18629-0.011669 0.23988 0 0.024786 0.0065588 0.039353 0.020032 0.043751 0.018609 0.0058216 0.10975 0.0083638 0.27344 0.0083638 0.15238 0 0.24059-0.0025422 0.26502-0.0083638 0.017134-0.004398 0.025498-0.018965 0.025498-0.043751 0-0.051403-0.0025168-0.12869-0.0072707-0.23223-0.0050844-0.1039-0.007652-0.18154-0.007652-0.23368 0-0.021888 0.0091264-0.03282 0.026617-0.03282 0.02077 0 0.05214 0.0010931 0.094773 0.0029235 0.042302 0.0021863 0.074003 0.0032794 0.09551 0.0032794 0.02077 0 0.05214-0.0010931 0.094442-0.0032794 0.042277-0.0018304 0.074334-0.0029235 0.09551-0.0029235 0.02077 0 0.030964 0.0084146 0.030964 0.025524 0 0.082036-0.0032794 0.20523-0.010194 0.37075-0.0065588 0.16514-0.0098383 0.2891-0.0098383 0.37149 0 0.077638 0.0036353 0.19392 0.010931 0.34925 0.007652 0.1553 0.011313 0.2712 0.011313 0.34815z"/>
  <path class="fil0" d="m4.1374 4.2169c0 0.011313-0.0072961 0.026235-0.022219 0.044844-0.13087 0.15604-0.30516 0.23403-0.52242 0.23403-0.22201 0-0.4021-0.075808-0.54029-0.22748-0.13451-0.14691-0.20195-0.33209-0.20195-0.55557 0-0.21654 0.065995-0.40027 0.1976-0.5512 0.13743-0.15787 0.31241-0.23698 0.52458-0.23698 0.2304 0 0.41161 0.070724 0.54248 0.21255 0.014211 0.01566 0.021126 0.029515 0.021126 0.041565 0 0.013474-0.024405 0.063784-0.074003 0.15055-0.049573 0.087121-0.080562 0.1356-0.093324 0.14653-0.0058216 0.0054911-0.013118 0.0084146-0.021507 0.0084146-0.0036608 0-0.021507-0.014211-0.053589-0.042658-0.038285-0.034269-0.076189-0.060885-0.113-0.080231-0.056157-0.028396-0.11483-0.042632-0.17536-0.042632-0.10464 0-0.1881 0.038997-0.25081 0.11737-0.057606 0.072554-0.086409 0.16262-0.086409 0.26942 0 0.10789 0.028803 0.19867 0.086409 0.27232 0.062716 0.079494 0.14618 0.11958 0.25081 0.11958 0.061978 0 0.12068-0.013499 0.17645-0.040853 0.036074-0.01749 0.073266-0.042658 0.1112-0.074715 0.030964-0.026998 0.04848-0.040472 0.052115-0.040472 0.0072961 0 0.014211 0.0040167 0.021507 0.011669 0.011313 0.012762 0.042277 0.057225 0.092968 0.13344 0.051759 0.079113 0.077638 0.12248 0.077638 0.13049z"/>
  <path class="fil1" d="m2.6334 3.934c0 0.18156-0.021888 0.30514-0.065258 0.37149-0.079825 0.12103-0.27888 0.18156-0.59713 0.18156-0.14363 0-0.25447-0.010957-0.33211-0.033176-0.12396-0.035362-0.20416-0.10354-0.24133-0.20378-0.018609-0.049217-0.02771-0.13672-0.02771-0.26286 0-0.029184 0.0010931-0.072554 0.0032794-0.13014 0.001805-0.057962 0.0028981-0.101 0.0028981-0.12942 0-0.082392-0.0036353-0.20635-0.011643-0.37149-0.007652-0.16552-0.011694-0.28872-0.011694-0.37075 0-0.017109 0.0073215-0.025524 0.022244-0.025524 0.043751 0 0.10936 0.0018304 0.19722 0.0051098 0.087883 0.0036608 0.1535 0.0054657 0.19687 0.0054657 0.017872 0 0.026998 0.0076774 0.026998 0.023337 0 0.094061-0.0032794 0.23477-0.0091264 0.42251-0.0062029 0.18777-0.0091264 0.32845-0.0091264 0.42251 0 0.11158 0.011694 0.18703 0.035387 0.22641 0.03132 0.053208 0.096578 0.080206 0.19649 0.080206 0.14582 0 0.21873-0.071105 0.21873-0.21253 0-0.10354-0.0025422-0.25813-0.0072961-0.46481-0.0050844-0.20635-0.007652-0.36127-0.007652-0.46446 0-0.022219 0.0091264-0.033176 0.026617-0.033176 0.042277 0 0.1057-0.001805 0.19028-0.0054657 0.084604-0.0032794 0.14801-0.0051098 0.18995-0.0051098 0.02077 0 0.030964 0.0084146 0.030964 0.025524 0 0.082036-0.0032794 0.20523-0.0098383 0.37075-0.0069148 0.16514-0.010194 0.2891-0.010194 0.37149 0 0.022956 0.00035591 0.05725 0.0010931 0.10316 0.00073723 0.045937 0.0010931 0.080206 0.0010931 0.10316z"/>
  <path class="fil0" d="m1.0605 4.4765c-0.061241 0-0.14109-0.0014745-0.23914-0.004398-0.12833-0.0029235-0.20815-0.0047285-0.23952-0.0054403l-0.31935-0.0040421c-0.031701 0.00076266-0.077638-0.00071181-0.13743-0.0043471-0.02077-0.0036608-0.030964-0.014592-0.030964-0.033176 0-0.077664 0.0010677-0.19394 0.0036353-0.34851 0.0025422-0.15497 0.0036353-0.27125 0.0036353-0.34889 0-0.082392-0.0025422-0.20635-0.0072707-0.37113-0.0051352-0.16476-0.0076774-0.28836-0.0076774-0.37111 0-0.015685 0.01055-0.023693 0.032082-0.023693s0.053208 0.0010931 0.09551 0.0032794 0.074003 0.0033048 0.094417 0.0033048c0.023693 0 0.058699-0.0011186 0.10499-0.0036608 0.045937-0.0025422 0.080943-0.0036608 0.10464-0.0036608 0.010576 0 0.015685 0.0065588 0.014923 0.020083l-0.0010677 0.01383c-0.0087706 0.13418-0.018228 0.33504-0.028803 0.60372l-0.0010931 0.2818c0 0.091137 0.00035591 0.15784 0.0010931 0.19976 0.00073723 0.0083638 0.0014745 0.017134 0.0018304 0.025524 0.00071181 0.0087451 0.0062029 0.013855 0.016041 0.016016h0.02804c0.063834 0 0.16006-0.0032794 0.28765-0.010194 0.12797-0.0065588 0.22384-0.01022 0.288-0.01022 0.018965 0 0.028803 0.0084146 0.028803 0.024812 0 0.12174-0.009101 0.22674-0.026591 0.31498-0.0036862 0.018583-0.011338 0.029515-0.022626 0.033176-0.0036353 0.001449-0.018228 0.0021863-0.043751 0.0021863z"/>
  <polygon points="2.4037 2.607 9.5485 2.607 9.5485 2.7379 2.4037 2.7379" class="fil2"/>
  <polygon points="0 2.607 1.6052 2.607 1.6052 2.7379 0 2.7379" class="fil2"/>
  <path class="fil2" d="m1.944 0c-0.017592 0.15746 0.18629 0.33272 0.22371 0.50018 0.060199 0.25147 0.0035082 0.45953-0.017719 0.66816-0.012101 0.18192 0.065461 0.31332 0.14018 0.33974 0.065995 0.020795 0.084858-0.26759 0.026642-0.49316 0.11717 0.22054 0.21291 0.46278 0.14305 0.83877-0.063199 0.34002-0.40924 0.48185-0.55664 0.52166 0.054682-0.53724-0.39719-0.39887-0.41692-1.0719-0.016702-0.16349 0.21296-0.63199 0.2034-0.72841 0.026362 0.14501-0.07624 0.48162 0.051734 0.74173 0.013372-0.076545-0.029261-0.27987 0.1176-0.5604 0.16133-0.39429-0.0043217-0.53874 0.08496-0.75635z"/>
 </g>
</svg>
