<?xml version="1.0" encoding="UTF-8" standalone="no"?>
<!DOCTYPE svg  PUBLIC '-//W3C//DTD SVG 1.1//EN'  'http://www.w3.org/Graphics/SVG/1.1/DTD/svg11.dtd'>
<!-- Creator: CorelDRAW -->
<svg style="shape-rendering:geometricPrecision;text-rendering:geometricPrecision;image-rendering:optimizeQuality" xmlns="http://www.w3.org/2000/svg" fill-rule="evenodd" xml:space="preserve" height="6.2882mm" width="37.265mm" clip-rule="evenodd" xmlns:xlink="http://www.w3.org/1999/xlink" viewBox="0 0 9.4312 1.59144">
 <defs>
  <style type="text/css">
   <![CDATA[
    .fil0 {fill:#1F1A17;fill-rule:nonzero}
    .fil1 {fill:#DA251D;fill-rule:nonzero}
   ]]>
  </style>
 </defs>
 <g id="Слой_x0020_1">
  <path class="fil0" d="m9.4312 1.4768c0 0.030471-0.013059 0.05044-0.039203 0.059525-0.021411 0.0072382-0.077317 0.010503-0.16805 0.010503-0.08744 0-0.15096-0.0032648-0.19161-0.010503-0.01888-0.0036444-0.031585-0.0072635-0.03776-0.011237-0.0057956-0.004024-0.013414-0.013818-0.022854-0.030142-0.051553-0.095109-0.10306-0.19019-0.15388-0.2849-0.084581-0.15317-0.135-0.23772-0.15096-0.25334-0.076608 0.027586-0.11505 0.047554-0.11505 0.059525 0 0.05335 0.0021512 0.13358 0.0065296 0.24099 0.0039987 0.10741 0.0061499 0.18799 0.0061499 0.24172 0 0.02212-0.0094147 0.03447-0.028649 0.03738-0.036672 0.0057956-0.10344 0.0083518-0.19999 0.0083518-0.091819 0-0.15279-0.0025562-0.18258-0.0083518-0.020677-0.004353-0.030826-0.015261-0.030826-0.033028 0-0.076608 0.0036191-0.19199 0.010883-0.3466 0.0076431-0.15463 0.011262-0.2704 0.011262-0.34769 0-0.082024-0.0036191-0.20578-0.010528-0.37054-0.0072635-0.16478-0.010908-0.28819-0.010908-0.37057 0-0.015615 0.0076431-0.023233 0.022524-0.023233 0.022145 0 0.055147 0.0010883 0.099437 0.0029105 0.044264 0.0021765 0.077292 0.0032648 0.099437 0.0032648 0.022499 0 0.056261-0.0010883 0.1009-0.0032648 0.044644-0.0018222 0.078026-0.0029105 0.10017-0.0029105 0.011971 0 0.017766 0.0061752 0.017766 0.01888 0 0.052616-0.0025308 0.13173-0.0079722 0.23772-0.005087 0.10597-0.0079974 0.18508-0.0079974 0.23772 0 0.060968 0.016704 0.091465 0.050111 0.091465 0.08453 0 0.14985-0.023258 0.1967-0.069345 0.034824-0.033736 0.069674-0.095792 0.10523-0.18581 0.022879-0.068965 0.05988-0.17022 0.11179-0.30413 0.0076431-0.017766 0.023587-0.026498 0.047909-0.026498 0.018146 0 0.046087 0.0010883 0.083492 0.0029105 0.037001 0.0021765 0.064941 0.0032648 0.083442 0.0032648 0.01888 0 0.047554-0.00070864 0.085289-0.0021765 0.038114-0.0014426 0.066434-0.0021765 0.084581-0.0021765 0.017033 0 0.025764 0.0083518 0.025764 0.024676 0 0.023233-0.014881 0.080582-0.044644 0.17131-0.0882 0.26784-0.1891 0.43515-0.30307 0.50156-0.023562 0.013414-0.035179 0.024676-0.035179 0.033002 0-0.00070864 0.065346 0.10564 0.19599 0.31904 0.13102 0.2134 0.19634 0.34042 0.19634 0.38071z"/>
  <path class="fil0" d="m7.9241 1.0471c0 0.14408-0.060614 0.26748-0.18184 0.37021-0.10632 0.090705-0.2359 0.14841-0.38833 0.17311-0.0054413 0.00070864-0.010174 0.001063-0.013793 0.001063-0.016324 0-0.052262-0.049706-0.1085-0.14917-0.055906-0.099791-0.083847-0.1604-0.083847-0.18255 0-0.0076178 0.0054413-0.012705 0.01597-0.014856 0.10273-0.023233 0.17096-0.043201 0.20399-0.059525 0.073647-0.036672 0.11067-0.09149 0.11067-0.1637 0-0.046087-0.023967-0.09764-0.07223-0.15426-0.083821-0.096147-0.1292-0.14988-0.13608-0.1604-0.048997-0.073673-0.073318-0.15534-0.073318-0.24461 0-0.12958 0.059905-0.23737 0.17964-0.32336 0.09764-0.070788 0.21778-0.11687 0.36042-0.1379 0.0075925-0.00073394 0.013768-0.0011136 0.018121-0.0011136 0.010554 0 0.01888 0.0083518 0.02541 0.02541 0.018526 0.051553 0.061348 0.14519 0.12884 0.28054 0.0017969 0.004353 0.0028852 0.0079974 0.0028852 0.010883 0 0.011996-0.0061499 0.017792-0.018855 0.017792-0.0057956 0-0.015236-0.00070864-0.028674-0.0029105-0.013793-0.0021765-0.023942-0.0032648-0.030851-0.0032648-0.051174 0-0.095818 0.011642-0.13429 0.035229-0.046087 0.026852-0.068965 0.064207-0.068965 0.1125 0 0.043201 0.02541 0.096552 0.076608 0.15967 0.089997 0.11326 0.13717 0.17276 0.14152 0.17858 0.050085 0.078026 0.075495 0.15532 0.075495 0.23264z"/>
  <path class="fil0" d="m6.9494 1.2057c0 0.030471-0.0061752 0.086352-0.018171 0.16802-0.012705 0.088554-0.024296 0.14117-0.03409 0.15825-0.0083771 0.013414-0.020348 0.020323-0.035229 0.020323-0.0061499 0-0.017058-0.0010883-0.031939-0.0032648-0.051528-0.0069092-0.20252-0.010528-0.45294-0.010528-0.054413 0-0.1357-0.00035432-0.24349-0.0011136-0.10743-0.00070864-0.18837-0.001063-0.2421-0.001063-0.023587 0-0.035179-0.010174-0.035179-0.030851 0-0.079494 0.0043277-0.19852 0.013059-0.35786 0.0090604-0.15896 0.013414-0.27834 0.013414-0.35786 0-0.080531-0.004353-0.23114-0.012705-0.45183-0.0021765-0.05659-0.0061499-0.14117-0.011617-0.25405l-0.0010883-0.014856c-0.0014173-0.016349 0.0072635-0.024347 0.026498-0.024347 0.052616 0 0.13138 0.0014679 0.23663 0.0039987 0.10526 0.0029105 0.18402 0.0043784 0.23663 0.0043784 0.051528 0 0.12958-0.0014679 0.23372-0.0043784 0.10417-0.0025308 0.18217-0.0039987 0.23408-0.0039987 0.036672 0 0.058083 0.013793 0.063878 0.041379 0.0032648 0.016349 0.0087314 0.065701 0.016349 0.14843 0.0072382 0.082379 0.011237 0.13249 0.011237 0.15026 0 0.014881-0.0072635 0.022499-0.021411 0.022499-0.0043277 0-0.011617-0.00035432-0.022145-0.0010883-0.18872-0.01559-0.35822-0.023587-0.50847-0.023587-0.037355 0-0.060588 0.0090604-0.06894 0.026852-0.0036191 0.0083518-0.0054413 0.035584-0.0054413 0.08167 0 0.048263 0.0072635 0.080202 0.021411 0.095792 0.011996 0.013439 0.03485 0.019968 0.06894 0.019968 0.0072635 0 0.021082-0.00035432 0.041404-0.0014426 0.020677-0.0010883 0.03771-0.0014679 0.051174-0.0014679 0.089263 0 0.17964-0.0025055 0.2711-0.0076178 0.0079722-0.00070864 0.027206-0.0025308 0.058412-0.0054413 0.024321-0.0025308 0.043201-0.0039987 0.057349-0.0039987 0.017058 0 0.025764 0.0079974 0.025764 0.024347 0-0.014907-0.0065296 0.039557-0.019234 0.16256-0.0058209 0.056994-0.0083265 0.11361-0.0083265 0.17025 0 0.014147-0.010554 0.021386-0.030876 0.021386 0 0-0.031939-0.0036191-0.095792-0.010883-0.040291-0.0039734-0.13249-0.0061499-0.27657-0.0061499h-0.1125c-0.029029 0-0.046112 0.0068839-0.051174 0.021031-0.00070864 0.0036191-0.0010883 0.025764-0.0010883 0.06608 0 0.054059 0.0036444 0.088529 0.010528 0.10412 0.01235 0.026878 0.057678 0.042847 0.13608 0.047934h0.15534c0.03776 0 0.093287-0.0032901 0.16767-0.010174 0.074052-0.0065296 0.12958-0.010149 0.16623-0.010149 0.015615 0 0.023613 0.013059 0.023613 0.038469z"/>
  <path class="fil0" d="m5.658 1.5033c0 0.014856-0.0032901 0.024296-0.00944 0.027561-0.0029105 0.0022018-0.012705 0.004024-0.029763 0.0054666-0.043176 0.0043277-0.10417 0.0065296-0.18293 0.0065296-0.11141 0-0.17673-0.0022018-0.19634-0.0065296-0.019234-0.004353-0.029029-0.013793-0.029029-0.028674 0-0.055906 0.0025562-0.14011 0.0079722-0.2526 0.005087-0.11217 0.0079974-0.19634 0.0079974-0.2526 0-0.027586-0.0079974-0.043556-0.023587-0.047909-0.023967-0.0054413-0.10961-0.0083518-0.25731-0.0083518-0.1481 0-0.23446 0.0029105-0.25951 0.0083518-0.01559 0.0036444-0.023208 0.019614-0.023208 0.047909 0 0.055527 0.0018222 0.13828 0.0054413 0.24825 0.0032648 0.11032 0.0050617 0.19308 0.0050617 0.24825 0 0.021411-0.0094147 0.033736-0.028649 0.03738-0.022499 0.0043277-0.089288 0.0065296-0.19999 0.0065296-0.095438 0-0.15643-0.0022018-0.18255-0.0065296-0.020677-0.0036444-0.030851-0.014527-0.030851-0.033028 0-0.076608 0.0036191-0.19199 0.010883-0.3466 0.0076431-0.15463 0.011262-0.2704 0.011262-0.34769 0-0.082024-0.0036191-0.20578-0.010503-0.37054-0.0072888-0.16478-0.010908-0.28819-0.010908-0.37057 0-0.015615 0.0076178-0.023233 0.022499-0.023233 0.022145 0 0.055172 0.0010883 0.099462 0.0029105 0.044264 0.0021765 0.077266 0.0032648 0.099411 0.0032648 0.022524 0 0.056994-0.0010883 0.10273-0.0032648 0.045732-0.0018222 0.079848-0.0029105 0.10235-0.0029105 0.011971 0 0.018121 0.0061752 0.018121 0.01888 0 0.05335-0.0039734 0.13284-0.011591 0.23881-0.0079974 0.10597-0.011617 0.18546-0.011617 0.23881 0 0.024676 0.0065296 0.039177 0.019943 0.043556 0.018526 0.0057956 0.10926 0.0083265 0.27222 0.0083265 0.1517 0 0.23952-0.0025308 0.26384-0.0083265 0.017058-0.0043784 0.025384-0.01888 0.025384-0.043556 0-0.051174-0.0025055-0.12811-0.0072382-0.23119-0.0050617-0.10344-0.0076178-0.18073-0.0076178-0.23264 0-0.02179 0.0090857-0.032673 0.026498-0.032673 0.020677 0 0.051908 0.0010883 0.09435 0.0029105 0.042113 0.0021765 0.073673 0.0032648 0.095084 0.0032648 0.020677 0 0.051908-0.0010883 0.094021-0.0032648 0.042088-0.0018222 0.074002-0.0029105 0.095084-0.0029105 0.020677 0 0.030826 0.0083771 0.030826 0.02541 0 0.08167-0.0032648 0.20432-0.010149 0.3691-0.0065296 0.1644-0.0097944 0.28781-0.0097944 0.36983 0 0.077292 0.0036191 0.19305 0.010883 0.34769 0.0076178 0.15461 0.011262 0.26999 0.011262 0.3466z"/>
  <path class="fil0" d="m4.0329 1.296c0 0.011262-0.0072635 0.026118-0.02212 0.044644-0.13029 0.15534-0.3038 0.23299-0.52009 0.23299-0.22102 0-0.4003-0.07547-0.53788-0.22646-0.13391-0.14626-0.20105-0.3306-0.20105-0.55309 0-0.21558 0.065701-0.39848 0.19672-0.54874 0.13682-0.15716 0.31102-0.23592 0.52224-0.23592 0.22937 0 0.40977 0.070408 0.54006 0.2116 0.014147 0.01559 0.021031 0.029383 0.021031 0.041379 0 0.013414-0.024296 0.063499-0.073673 0.14988-0.049351 0.086732-0.080202 0.135-0.092907 0.14588-0.0057956 0.0054666-0.013059 0.0083771-0.021411 0.0083771-0.0036444 0-0.021411-0.014147-0.05335-0.042468-0.038114-0.034116-0.075849-0.060614-0.1125-0.079873-0.055906-0.02827-0.11432-0.042442-0.17458-0.042442-0.10417 0-0.18726 0.038823-0.24969 0.11685-0.057349 0.07223-0.086023 0.1619-0.086023 0.26822 0 0.10741 0.028674 0.19778 0.086023 0.2711 0.062436 0.079139 0.14552 0.11905 0.24969 0.11905 0.061702 0 0.12014-0.013439 0.17567-0.040671 0.035913-0.017412 0.072939-0.042468 0.1107-0.074381 0.030826-0.026878 0.048263-0.040291 0.051882-0.040291 0.0072635 0 0.014147 0.0039987 0.021411 0.011617 0.011262 0.012705 0.042088 0.056969 0.092553 0.13284 0.051528 0.07876 0.077292 0.12194 0.077292 0.12991z"/>
  <path class="fil1" d="m2.5356 1.0144c0 0.18075-0.02179 0.30378-0.064967 0.36983-0.079468 0.12049-0.27763 0.18075-0.59447 0.18075-0.14299 0-0.25334-0.010908-0.33063-0.033028-0.1234-0.035204-0.20325-0.10308-0.24025-0.20287-0.018526-0.048997-0.027586-0.13611-0.027586-0.26169 0-0.029054 0.0010883-0.07223 0.0032648-0.12955 0.0017969-0.057703 0.0028852-0.10055 0.0028852-0.12884 0-0.082024-0.0036191-0.20543-0.011591-0.36983-0.0076178-0.16478-0.011642-0.28743-0.011642-0.3691 0-0.017033 0.0072888-0.02541 0.022145-0.02541 0.043556 0 0.10888 0.0018222 0.19634 0.005087 0.087491 0.0036444 0.15281 0.0054413 0.19599 0.0054413 0.017792 0 0.026878 0.0076431 0.026878 0.023233 0 0.093641-0.0032648 0.23372-0.0090857 0.42063-0.0061752 0.18693-0.0090857 0.32698-0.0090857 0.42063 0 0.11108 0.011642 0.18619 0.035229 0.2254 0.03118 0.05297 0.096147 0.079848 0.19561 0.079848 0.14517 0 0.21775-0.070788 0.21775-0.21158 0-0.10308-0.0025308-0.25698-0.0072635-0.46274-0.0050617-0.20543-0.0076178-0.35966-0.0076178-0.46238 0-0.02212 0.0090857-0.033028 0.026498-0.033028 0.042088 0 0.10523-0.0017969 0.18943-0.0054413 0.084226-0.0032648 0.14735-0.005087 0.1891-0.005087 0.020677 0 0.030826 0.0083771 0.030826 0.02541 0 0.08167-0.0032648 0.20432-0.0097944 0.3691-0.0068839 0.1644-0.010149 0.28781-0.010149 0.36983 0 0.022854 0.00035432 0.056994 0.0010883 0.1027 0.00073394 0.045732 0.0010883 0.079848 0.0010883 0.1027z"/>
  <path class="fil0" d="m0.96974 1.5544c-0.060968 0-0.14046-0.0014679-0.23808-0.0043784-0.12776-0.0029105-0.20722-0.0047074-0.23846-0.005416l-0.31792-0.004024c-0.03156 0.00075925-0.077292-0.00070864-0.13682-0.0043277-0.020677-0.0036444-0.030826-0.014527-0.030826-0.033028 0-0.077317 0.001063-0.19308 0.0036191-0.34695 0.0025308-0.15428 0.0036191-0.27004 0.0036191-0.34733 0-0.082024-0.0025308-0.20543-0.0072382-0.36948-0.0051123-0.16402-0.0076431-0.28707-0.0076431-0.36945 0-0.015615 0.010503-0.023587 0.031939-0.023587s0.05297 0.0010883 0.095084 0.0032648c0.042113 0.0021765 0.073673 0.0032901 0.093995 0.0032901 0.023587 0 0.058437-0.0011136 0.10452-0.0036444 0.045732-0.0025308 0.080582-0.0036444 0.10417-0.0036444 0.010528 0 0.015615 0.0065296 0.014856 0.019994l-0.001063 0.013768c-0.0087314 0.13358-0.018146 0.33354-0.028674 0.60102l-0.0010883 0.28054c0 0.090731 0.00035432 0.15714 0.0010883 0.19887 0.00073394 0.0083265 0.0014679 0.017058 0.0018222 0.02541 0.00070864 0.0087061 0.0061752 0.013793 0.01597 0.015944h0.027915c0.063549 0 0.15934-0.0032648 0.28636-0.010149 0.1274-0.0065296 0.22284-0.010174 0.28672-0.010174 0.01888 0 0.028674 0.0083771 0.028674 0.024701 0 0.1212-0.0090604 0.22573-0.026473 0.31357-0.0036697 0.0185-0.011288 0.029383-0.022524 0.033028-0.0036191 0.0014426-0.018146 0.0021765-0.043556 0.0021765z"/>
 </g>
</svg>
